# xmcd
#
# Track frame offsets:
# 150
# 16355
# 35200
# 53097
# 71467
# 81380
# 97675
# 117475
# 144325
# 157750
# 178120
#
# Disc length: 2646 seconds
#
#
# Revision: 1
# Processed by: cddbd v1.5.2PL0 Copyright (c) Steve Scherf et al.
# Submitted via: FreeRIP 2.951 
#
DISCID=8a0a540b
DTITLE=Ludwig Hirsch - Ludwig Hirsch - In meiner Sprache
DYEAR=1991
DGENRE=AustroPop
TTITLE0=Sternderl schaun
TTITLE1=Ned du
TTITLE2=Jonas I
TTITLE3=In deiner Sprache
TTITLE4=Jonas II
TTITLE5=Nelli
TTITLE6=Die Hand
TTITLE7=Mondkinder
TTITLE8=Boo - Gie Woogie
TTITLE9=Engerl
TTITLE10=Der fremde Musikant
EXTD=
EXTT0=
EXTT1=
EXTT2=
EXTT3=
EXTT4=
EXTT5=
EXTT6=
EXTT7=
EXTT8=
EXTT9=
EXTT10=
PLAYORDER=
